<svg preserveAspectRatio="none" width="100%" height="100%" overflow="visible" style="display: block;" viewBox="0 0 46.6195 25.1663" fill="none" xmlns="http://www.w3.org/2000/svg">
<g id="aiweekends_logo 1" clip-path="url(#clip0_0_4)">
<path id="Vector" d="M40.8918 0.0287068C41.024 0.0111398 41.1575 0.00183886 41.2909 0.000805507C43.1677 -0.00865998 42.6879 1.8904 43.1225 2.30857C43.4334 2.43166 44.1178 2.10533 44.509 2.0504C45.5026 1.91077 45.3742 2.74792 45.4667 3.4921C45.8377 4.03093 46.621 4.1815 46.7983 4.7763C47.0238 5.53259 45.5905 5.85847 45.3094 6.41168C45.1257 6.77266 45.5487 7.25689 45.6106 7.53957C45.9181 8.94015 45.1098 11.3372 44.486 12.5497C43.2936 14.8681 41.4817 16.693 38.9325 17.4499C36.9013 18.0532 34.8317 18.5579 32.7735 19.0608L24.5228 21.09L16.6859 22.9699C13.1247 23.8358 5.23617 26.0455 2.00727 24.4141C1.71801 24.2405 1.45125 24.033 1.21291 23.7953C-0.559729 22.0064 -0.183655 18.0859 1.02585 16.0819C1.81674 14.7715 2.81255 13.8587 3.88926 12.7944C4.7384 11.9477 5.59267 11.106 6.452 10.2694C8.16372 8.59955 9.86934 6.91733 11.5805 5.24928C12.31 4.53818 13.3101 3.77193 14.3442 3.6609C14.6646 3.62651 15.1983 3.6473 15.5348 3.65408C15.9742 3.37041 16.4088 3.07925 16.8381 2.78073C17.4286 2.36421 18.293 1.68517 18.9467 1.4258C19.7498 1.10711 20.2196 2.54405 20.8206 2.8097C21.3224 3.03146 21.9946 2.39558 22.5311 2.2214C23.4722 1.91577 24.9761 1.90164 25.8612 2.35809C27.0563 2.9743 27.3363 3.94917 27.7063 5.10296C28.3116 4.73133 29.0504 4.41756 29.6937 4.09842C31.2776 3.31266 32.8593 2.50805 34.4702 1.77797C35.2404 1.42886 35.4868 1.78144 35.906 2.38971C36.1876 2.20321 37.2774 1.6774 37.6306 1.5095C38.6392 1.02986 39.8271 0.284565 40.8918 0.0287068Z" fill="var(--fill-0, black)"/>
<path id="Vector_2" d="M23.3938 3.3284C24.123 3.30343 24.5932 3.25516 25.2325 3.67709C25.7442 4.01153 26.1004 4.533 26.223 5.12689C26.5497 6.76458 25.4067 7.73181 24.6409 8.83808C24.9826 9.42505 25.9301 10.4598 26.4175 10.9393C27.0398 10.2426 27.1521 9.71095 28.125 9.459C28.5045 9.56234 28.6073 9.58448 28.8919 9.85537C29.2034 11.1624 28.5192 11.6398 27.8619 12.7174C28.3729 13.3977 29.5121 14.1327 29.7938 14.9229C30.2152 16.1046 28.9752 17.1384 27.7888 16.6155C27.2149 16.3199 26.6503 15.6665 26.1978 15.1883C26.0449 15.401 25.8815 15.6063 25.7081 15.8031C25.0492 16.5539 24.0994 17.2145 23.0667 17.2763C22.3344 17.3183 21.615 17.0735 21.0643 16.5951C20.68 16.2582 20.4332 15.8756 20.2349 15.4108C19.2898 13.1966 20.3913 10.7399 21.9161 9.06993C20.6368 7.06165 20.776 4.12702 23.3938 3.3284Z" fill="var(--fill-0, #F5F5EE)"/>
<path id="Vector_3" d="M22.9221 10.7022C23.075 10.8333 24.5685 13.0111 24.7266 13.2588C24.4104 13.6903 24.1413 13.9573 23.7127 14.2721C23.6216 14.3291 23.4649 14.4088 23.3592 14.4381C23.1497 14.4985 22.9244 14.4731 22.7341 14.3676C22.4464 14.2068 22.2504 13.8693 22.1767 13.5593C21.9079 12.4292 22.3857 11.6187 22.9221 10.7022Z" fill="var(--fill-0, black)"/>
<path id="Vector_4" d="M23.5422 5.26922C24.7675 5.25182 24.0227 6.45258 23.6061 6.92891L23.5309 6.97917C23.4353 6.948 23.3959 6.89092 23.3334 6.81144C23.1336 6.5574 23.0505 6.23231 23.1043 5.91498C23.1541 5.63577 23.3133 5.431 23.5422 5.26922Z" fill="var(--fill-0, black)"/>
<path id="Vector_5" d="M41.1791 5.81459C41.5782 5.84972 41.8832 5.90855 42.1798 6.19681C42.4497 6.45945 42.5196 6.86109 42.5237 7.22049C42.5455 9.06112 40.6214 13.0958 39.2785 14.4381C38.9145 14.8018 38.3928 15.2404 37.8409 15.2284C36.8565 15.2071 36.3214 14.0154 35.977 13.2701C35.875 13.0488 35.7888 12.7711 35.614 12.5987C34.9517 12.3734 34.2747 15.5511 33.0084 15.8846C31.2146 16.357 30.4995 13.7685 30.0846 12.5722C29.9872 12.2638 29.9027 11.9516 29.8312 11.6363C29.6268 10.7084 29.3952 9.46586 29.9276 8.6139C30.2844 8.0428 31.3411 7.90903 31.8752 8.29864C32.2512 8.57298 32.3794 9.04907 32.5283 9.46668C32.7969 10.3981 32.871 11.3814 33.0335 12.3316C33.5555 11.3504 34.9107 8.51122 36.1515 8.28749C37.5125 8.04217 37.8012 10.3104 37.9179 11.2826C38.2392 10.5744 38.5367 9.85567 38.8091 9.12772C39.2743 7.88481 39.6575 6.05565 41.1791 5.81459Z" fill="var(--fill-0, #F5F5EE)"/>
<path id="Vector_6" d="M12.9577 8.4247C13.8329 8.3198 15.1277 8.41297 15.6373 9.23065C16.5368 10.6739 15.4756 12.7013 15.4439 14.2682C15.3966 14.9989 15.7602 15.6806 15.6462 16.4011C15.5147 17.2324 14.3663 17.5696 13.6934 17.2163C13.2681 16.993 12.975 16.3897 12.752 15.9851C12.3757 16.4135 11.9646 16.8108 11.5229 17.1731C9.81203 18.4065 7.81619 18.183 7.50488 15.8605C7.10048 12.8433 9.76712 8.67033 12.9577 8.4247Z" fill="var(--fill-0, #F5F5EE)"/>
<path id="Vector_7" d="M12.4619 11.2616C13.1062 11.2329 13.2011 11.5846 12.9912 12.1329C12.5997 13.1559 11.8528 14.1961 10.8416 14.6934C9.49492 15.0222 10.817 11.8568 12.4619 11.2616Z" fill="var(--fill-0, black)"/>
<path id="Vector_8" d="M18.0755 10.5618C18.5305 10.526 18.7525 10.7252 19.0391 11.0272C19.1364 11.9123 18.9121 15.8346 18.5036 16.4118C18.279 16.7291 18.0039 16.8116 17.6384 16.8725C17.1938 16.7432 16.9089 16.6454 16.7497 16.1632C16.4856 15.3635 16.5223 14.4931 16.6366 13.6695C16.747 12.875 16.8031 12.0285 17.1374 11.2889C17.3243 10.8742 17.6778 10.6959 18.0755 10.5618Z" fill="var(--fill-0, #F5F5EE)"/>
<path id="Vector_9" d="M8.34118 19.0328C8.45375 19.0254 8.58482 19.0114 8.69357 19.0484C8.79575 19.0831 8.87553 19.1843 8.91687 19.2793C8.9758 19.4148 8.98128 19.6338 8.91969 19.7681C8.75142 20.1347 3.58909 21.852 2.83297 22.1128C2.58601 22.1843 2.4505 22.2583 2.22065 22.1025C2.20186 22.0334 2.19019 22.0132 2.2278 21.9467C2.52882 21.4122 7.52391 19.3039 8.34118 19.0328Z" fill="var(--fill-0, #F5F5EE)"/>
<path id="Vector_10" d="M22.7505 19.0069C23.4934 18.9505 23.3912 19.6344 22.9207 19.7829C20.766 20.4634 18.5461 21.1215 16.3534 21.6704C16.1446 21.7006 15.9553 21.684 15.8246 21.5017L15.8725 21.41C16.6487 20.8731 21.7265 19.0905 22.7505 19.0069Z" fill="var(--fill-0, #F5F5EE)"/>
<path id="Vector_11" d="M34.8383 3.06646C34.9091 3.15041 35.0537 3.53987 35.1241 3.67573C35.4115 4.2303 35.978 4.5375 36.4926 4.87491C36.2524 5.03276 36.0537 5.123 35.7989 5.30685C35.0982 5.81212 34.8191 6.48753 34.3685 7.18946C34.1413 7.18851 34.1304 6.50414 34.0041 6.24622C33.6728 5.56883 33.3205 5.44099 32.7612 5.02863C34.0589 4.29086 33.9886 4.44487 34.8383 3.06646Z" fill="var(--fill-0, #F5F5EE)"/>
<path id="Vector_12" d="M18.3629 7.09403C19.9539 7.03861 20.3799 9.18439 18.4005 9.74659C16.8332 9.98837 16.3913 7.45133 18.3629 7.09403Z" fill="var(--fill-0, #F5F5EE)"/>
<path id="Vector_13" d="M18.9723 2.35805C19.26 2.55043 19.3118 3.29828 20.3148 3.90602C19.3927 4.44551 19.1077 4.63747 18.5998 5.60262C18.4449 5.46659 18.3077 4.87985 18.1947 4.66409C17.9669 4.22908 17.6254 4.00262 17.2078 3.77028C18.0609 3.50781 18.4337 3.03651 18.9723 2.35805Z" fill="var(--fill-0, #F5F5EE)"/>
<path id="Vector_14" d="M44.4919 3.097C44.5885 3.21509 44.6337 3.38741 44.6848 3.53261C44.8877 4.10993 45.1412 4.33379 45.6424 4.67315C44.8709 5.04276 44.4086 5.42898 43.9898 6.16358C43.8011 6.00039 43.7857 5.39703 43.6108 5.13142C43.4104 4.82629 43.0899 4.56849 42.8184 4.32449C43.7254 4.05475 43.8882 3.80501 44.4919 3.097Z" fill="var(--fill-0, #F5F5EE)"/>
<path id="Vector_15" d="M14.8658 17.9267C15.2257 18.0985 15.2712 18.76 16.3449 19.1676C15.6787 19.6118 15.1615 20.0568 14.9003 20.8283C14.767 20.8349 14.7176 20.6865 14.6666 20.565C14.341 19.7895 14.125 19.6885 13.4393 19.2469C14.1595 18.8917 14.4732 18.6347 14.8658 17.9267Z" fill="var(--fill-0, #F5F5EE)"/>
<path id="Vector_16" d="M29.8016 6.22414C30.7779 6.14031 30.4213 6.89586 30.3138 6.93719C29.3309 7.31532 28.2333 7.56671 27.2553 8.01378L27.2014 8.03871C27.1062 8.09028 27.0836 8.10357 27.0191 8.11979C26.9647 8.13345 26.9064 8.13538 26.8564 8.11024C26.6703 8.01671 26.7226 7.74074 26.8961 7.62613C27.6638 7.11911 29.1482 6.41496 29.8016 6.22414Z" fill="var(--fill-0, #F5F5EE)"/>
<path id="Vector_17" d="M6.77496 13.2991C6.80568 13.2841 6.84184 13.2921 6.86518 13.3169C6.87332 13.3255 6.8785 13.3365 6.87873 13.3483C6.88147 13.4857 6.79233 13.7949 6.727 14.0856C6.67301 14.3258 6.53302 14.548 6.32435 14.6822C5.65203 15.115 4.59193 15.8545 4.15012 15.9183C4.1159 15.8416 4.05741 15.7414 4.10619 15.6613C4.4836 15.0404 6.12523 13.6138 6.77496 13.2991Z" fill="var(--fill-0, #F5F5EE)"/>
<path id="Vector_18" d="M25.3524 17.2651C25.4732 17.3051 25.8598 17.9167 26.1348 18.0713C26.3728 18.2051 26.4065 18.2144 26.6865 18.3127C26.0522 18.7383 25.8659 18.9573 25.5799 19.6385C25.4023 19.5649 25.1152 19.0464 24.8351 18.8796C24.5923 18.7348 24.5065 18.7054 24.2329 18.595C24.859 18.1957 25.033 17.9195 25.3524 17.2651Z" fill="var(--fill-0, #F5F5EE)"/>
<path id="Vector_19" d="M41.2514 1.84914C41.4427 1.9595 41.5828 2.49834 42.2067 2.86955C41.5569 3.192 41.4669 3.3165 41.0887 3.92411C40.6658 3.64168 41.1054 3.28554 40.1115 2.81826C40.7411 2.50333 40.8849 2.43678 41.2514 1.84914Z" fill="var(--fill-0, #F5F5EE)"/>
<path id="Vector_20" d="M16.3919 4.33671C16.6137 4.5113 16.6534 4.80933 17.2039 5.18935C16.7302 5.45649 16.54 5.67651 16.3115 6.15219C16.208 6.09631 15.9616 5.53771 15.8181 5.40168C15.6843 5.27487 15.634 5.24614 15.4775 5.14735C15.9077 4.93109 16.1334 4.73273 16.3919 4.33671Z" fill="var(--fill-0, #F5F5EE)"/>
<path id="Vector_21" d="M18.879 17.6921C19.1895 17.6244 19.498 17.8139 19.5739 18.1189C19.6499 18.424 19.4657 18.7331 19.1589 18.8155C18.9538 18.8707 18.7344 18.8115 18.5859 18.6611C18.4375 18.5108 18.3832 18.2927 18.4441 18.0915C18.5049 17.8902 18.6714 17.7373 18.879 17.6921Z" fill="var(--fill-0, #F5F5EE)"/>
<path id="Vector_22" d="M5.92979 17.3303C5.96795 17.3379 6.00581 17.3469 6.04338 17.3571C6.62265 17.5158 6.65307 18.1722 6.03957 18.4547C5.27588 18.3413 5.24505 17.6932 5.92979 17.3303Z" fill="var(--fill-0, #F5F5EE)"/>
<path id="Vector_23" d="M31.6818 5.66205C31.8164 5.59604 31.9767 5.60682 32.1011 5.69036C32.2254 5.77386 32.2946 5.91708 32.282 6.06514C32.2695 6.21316 32.1771 6.34303 32.0404 6.40486C31.8335 6.49849 31.5889 6.41082 31.4909 6.20791C31.393 6.005 31.478 5.76195 31.6818 5.66205Z" fill="var(--fill-0, #F5F5EE)"/>
<path id="Vector_24" d="M39.1164 3.72505C39.2323 3.69433 39.3561 3.72756 39.4401 3.81205C39.5242 3.89654 39.556 4.01926 39.523 4.13322C39.49 4.24717 39.3975 4.33481 39.2808 4.36258C39.1038 4.40474 38.9251 4.29839 38.88 4.12396C38.8352 3.94949 38.9407 3.77171 39.1164 3.72505Z" fill="var(--fill-0, #F5F5EE)"/>
</g>
<defs>
<clipPath id="clip0_0_4">
<rect width="46.6195" height="25.1663" fill="white"/>
</clipPath>
</defs>
</svg>
