<svg preserveAspectRatio="none" width="100%" height="100%" overflow="visible" style="display: block;" viewBox="0 0 81.2958 21.4464" fill="none" xmlns="http://www.w3.org/2000/svg">
<g id="Group 1597880988">
<g id="Vector">
<path d="M0 0.204813H5.10625V10.7578H0V0.204813Z" fill="var(--fill-0, black)"/>
<path d="M5.10622 10.8932H10.2125V21.4462H5.10622V10.8932Z" fill="var(--fill-0, black)"/>
<path d="M30.4672 10.7232C30.4672 7.33906 27.7238 4.5957 24.3397 4.5957C20.9556 4.5957 18.2122 7.33906 18.2122 10.7232C18.2122 14.1074 20.9556 16.8507 24.3397 16.8507V21.4464C18.4175 21.4464 13.6166 16.6455 13.6166 10.7232C13.6166 4.80094 18.4175 0 24.3397 0C30.2619 0 35.0628 4.80094 35.0628 10.7232C35.0628 16.6455 30.2619 21.4464 24.3397 21.4464V16.8507C27.7238 16.8507 30.4672 14.1074 30.4672 10.7232Z" fill="var(--fill-0, black)"/>
<path d="M76.6748 20.9727C74.2014 20.9727 72.1893 18.9606 72.1893 16.4871C72.1893 14.0137 74.2014 12.0016 76.6748 12.0016C79.1483 12.0016 81.1603 14.0137 81.1603 16.4871C81.1603 16.6281 81.1603 16.7691 81.1475 16.9101L80.9168 17.1151H73.535C73.8169 18.6017 75.1369 19.6911 76.6748 19.6911C77.8411 19.6911 78.9176 19.0631 79.4815 18.0378L79.6865 17.9225H80.5964L80.8015 18.2429C80.0966 19.8961 78.4818 20.9727 76.6748 20.9727ZM73.535 15.8335H79.8147C79.5199 14.3597 78.2127 13.2832 76.6748 13.2832C75.1498 13.2832 73.8426 14.3597 73.535 15.8335Z" fill="var(--fill-0, black)"/>
<path d="M66.5748 20.9727L66.3569 20.742V12.2323L66.5748 12.0016H67.4078L67.6257 12.2323V19.6911H71.4576L71.6754 19.9218V20.742L71.4576 20.9727H66.5748Z" fill="var(--fill-0, black)"/>
<path d="M60.9181 20.9727C58.4447 20.9727 56.4326 18.9606 56.4326 16.4871C56.4326 14.0137 58.4447 12.0016 60.9181 12.0016C63.0583 12.0016 64.9166 13.5267 65.3267 15.6285L65.1088 15.8976H64.263L64.0451 15.7182C63.6863 14.2828 62.4047 13.2832 60.9181 13.2832C59.1495 13.2832 57.7142 14.7186 57.7142 16.4871C57.7142 18.2557 59.1495 19.6911 60.9181 19.6911C62.4047 19.6911 63.6863 18.6915 64.0451 17.2561L64.263 17.0767H65.1088L65.3267 17.3458C64.9166 19.4476 63.0583 20.9727 60.9181 20.9727Z" fill="var(--fill-0, black)"/>
<path d="M50.8181 20.9727L50.6002 20.742V12.2323L50.8181 12.0016H52.4969C54.3808 12.0016 55.9187 13.5395 55.9187 15.4234C55.9187 16.7435 55.1498 17.9481 53.9579 18.512L55.3164 19.8577V20.1781L54.7268 20.7676H54.4064L52.4841 18.8324H51.8689V20.742L51.6511 20.9727H50.8181ZM51.8689 17.5637H52.4713H52.4969C53.6888 17.5637 54.6499 16.6025 54.6499 15.4234C54.6499 14.2316 53.6888 13.2832 52.4969 13.2832H51.8689V17.5637Z" fill="var(--fill-0, black)"/>
<path d="M48.0143 20.9727L47.7964 20.742V12.2323L48.0143 12.0016H48.8345L49.0652 12.2323V20.742L48.8345 20.9727H48.0143Z" fill="var(--fill-0, black)"/>
<path d="M42.3579 20.9727C39.8845 20.9727 37.8725 18.9606 37.8725 16.4871C37.8725 14.0137 39.8845 12.0016 42.3579 12.0016C44.4982 12.0016 46.3564 13.5267 46.7665 15.6285L46.5487 15.8976H45.7028L45.485 15.7182C45.1261 14.2828 43.8446 13.2832 42.3579 13.2832C40.5894 13.2832 39.154 14.7186 39.154 16.4871C39.154 18.2557 40.5894 19.6911 42.3579 19.6911C43.8446 19.6911 45.1261 18.6915 45.485 17.2561L45.7028 17.0767H46.5487L46.7665 17.3458C46.3564 19.4476 44.4982 20.9727 42.3579 20.9727Z" fill="var(--fill-0, black)"/>
<path d="M64.8101 10.6564L64.5923 10.4257V1.91603L64.8101 1.68535H66.489C68.3729 1.68535 69.9108 3.22324 69.9108 5.10717C69.9108 6.42719 69.1418 7.63188 67.95 8.19577L69.3084 9.54143V9.86182L68.7189 10.4513H68.3985L66.4762 8.51617H65.861V10.4257L65.6431 10.6564H64.8101ZM65.861 7.2474H66.4633H66.489C67.6808 7.2474 68.642 6.28622 68.642 5.10717C68.642 3.9153 67.6808 2.96693 66.489 2.96693H65.861V7.2474Z" fill="var(--fill-0, black)"/>
<path d="M59.0785 10.6564C56.6051 10.6564 54.593 8.64432 54.593 6.17088C54.593 3.69743 56.6051 1.68535 59.0785 1.68535C61.5519 1.68535 63.564 3.69743 63.564 6.17088C63.564 6.31185 63.564 6.45282 63.5512 6.5938L63.3205 6.79885H55.9386C56.2206 8.28548 57.5406 9.37482 59.0785 9.37482C60.2447 9.37482 61.3212 8.74685 61.8851 7.72159L62.0902 7.60625H63.0001L63.2051 7.92664C62.5003 9.57988 60.8855 10.6564 59.0785 10.6564ZM55.9386 5.51727H62.2183C61.9236 4.04346 60.6164 2.96693 59.0785 2.96693C57.5534 2.96693 56.2462 4.04346 55.9386 5.51727Z" fill="var(--fill-0, black)"/>
<path d="M48.365 10.6564L48.1471 10.4257V1.91603L48.3778 1.68535H50.0182L50.2489 1.86477L51.6715 9.38764H52.2994V1.91603L52.5173 1.69817H53.3503L53.5682 1.91603V10.4257L53.3375 10.6564H50.8128V10.6308L50.5821 10.4642L49.4159 4.35103V10.4257L49.198 10.6564H48.365Z" fill="var(--fill-0, black)"/>
<path d="M41.4064 10.6564L41.1886 10.4257V1.91603L41.4193 1.68535H43.0597L43.2904 1.86477L44.7129 9.38764H45.3409V1.91603L45.5587 1.69817H46.3918L46.6096 1.91603V10.4257L46.3789 10.6564H43.8542V10.6308L43.6236 10.4642L42.4573 4.35103V10.4257L42.2395 10.6564H41.4064Z" fill="var(--fill-0, black)"/>
<path d="M38.603 10.6564L38.3851 10.4257V1.91603L38.603 1.68535H39.4232L39.6539 1.91603V10.4257L39.4232 10.6564H38.603Z" fill="var(--fill-0, black)"/>
<path d="M81.1603 16.4871C81.1603 14.0137 79.1483 12.0016 76.6748 12.0016C74.2014 12.0016 72.1893 14.0137 72.1893 16.4871L72.1906 16.6029C72.2521 19.0231 74.2401 20.9726 76.6748 20.9727C78.4818 20.9727 80.0966 19.8961 80.8015 18.2429L80.5964 17.9225H79.6865L79.4815 18.0378C78.9176 19.0631 77.8411 19.6911 76.6748 19.6911L76.6745 19.5555C77.7918 19.5555 78.8226 18.9539 79.3623 17.9726L79.3809 17.9386L79.4147 17.9197L79.6506 17.787H80.6705L80.9542 18.2302L80.9261 18.2963C80.2 19.9992 78.5363 21.1086 76.6745 21.1086C74.1262 21.1085 72.0534 19.0357 72.0534 16.4873C72.0534 13.9389 74.1262 11.866 76.6745 11.866C79.2229 11.866 81.2958 13.9389 81.2958 16.4873C81.2958 16.6272 81.2958 16.7743 81.2824 16.9224L81.2776 16.976L80.9682 17.2511H73.7034C74.0347 18.5898 75.2572 19.5555 76.6745 19.5555L76.6748 19.6911L76.6027 19.6905C75.0957 19.6571 73.8125 18.5785 73.535 17.1151H80.9168L81.1475 16.9101C81.1603 16.7691 81.1603 16.6281 81.1603 16.4871ZM76.7465 13.2841C78.2531 13.317 79.5245 14.3828 79.8147 15.8335H73.535C73.8426 14.3597 75.1498 13.2832 76.6748 13.2832L76.7465 13.2841ZM76.6745 13.4191C75.2712 13.4192 74.0604 14.3713 73.7066 15.6979H79.644C79.3018 14.372 78.0911 13.4191 76.6745 13.4191Z" fill="var(--fill-0, black)"/>
<path d="M67.4078 12.0016H66.5748L66.3569 12.2323V20.742L66.5748 20.9727H71.4576L71.6754 20.742V19.9218L71.4576 19.6911H67.6257V12.2323L67.4078 12.0016ZM67.7608 19.5555H71.5155L71.8106 19.868V20.7961L71.5155 21.1086H66.5157L66.2576 20.8354L66.2206 20.7961V12.1784L66.2576 12.1392L66.5157 11.866H67.4657L67.7238 12.1392L67.7608 12.1784V19.5555Z" fill="var(--fill-0, black)"/>
<path d="M57.7142 16.4871C57.7142 14.7186 59.1495 13.2832 60.9181 13.2832L60.9872 13.2841C62.4441 13.3147 63.6919 14.3053 64.0451 15.7182L64.263 15.8976H65.1088L65.3267 15.6285C64.9166 13.5267 63.0583 12.0016 60.9181 12.0016C58.4447 12.0016 56.4326 14.0137 56.4326 16.4871C56.4326 18.9606 58.4447 20.9727 60.9181 20.9727C63.0583 20.9727 64.9166 19.4476 65.3267 17.3458L65.1088 17.0767H64.263L64.0451 17.2561C63.6863 18.6915 62.4047 19.6911 60.9181 19.6911L60.9176 19.5555C62.3422 19.5555 63.5692 18.598 63.9129 17.2234L63.9238 17.1799L63.9584 17.1515L64.1762 16.972L64.2138 16.9411H65.1731L65.4715 17.3098L65.4594 17.3719C65.0369 19.5377 63.1225 21.1086 60.9176 21.1086C58.3692 21.1085 56.2963 19.0357 56.2963 16.4873C56.2964 13.9389 58.3692 11.866 60.9176 11.866C63.0881 11.866 64.9769 13.3882 65.4385 15.5016L65.4594 15.6026L65.4715 15.6648L65.4317 15.7141L65.2138 15.9832L65.1731 16.0335H64.2138L63.9238 15.7947L63.9129 15.7513C63.5693 14.3766 62.3422 13.4191 60.9176 13.4191C59.224 13.4191 57.8494 14.7937 57.8494 16.4873C57.8494 18.1809 59.224 19.5555 60.9176 19.5555L60.9181 19.6911L60.835 19.6902C59.1046 19.6464 57.7142 18.2281 57.7142 16.4871Z" fill="var(--fill-0, black)"/>
<path d="M50.4639 12.1784L50.7591 11.866H52.4964L52.4969 12.0016H50.8181L50.6002 12.2323V20.742L50.8181 20.9727H51.6511L51.8689 20.742V18.8324H52.4841L54.4064 20.7676H54.7268L55.3164 20.1781V19.8577L53.9579 18.512C55.1311 17.957 55.894 16.7811 55.9176 15.4854L55.9187 15.4234C55.9187 13.5395 54.3808 12.0016 52.4969 12.0016L52.4964 11.866C54.4552 11.866 56.054 13.4648 56.054 15.4236L56.0533 15.4878C56.03 16.7713 55.3088 17.9412 54.1866 18.5481L55.4517 19.8013V20.2345L54.7825 20.9035H54.3495L52.4271 18.9683H52.0042V20.7961L51.7091 21.1086H50.7591L50.4639 20.7961V12.1784ZM52.4964 17.428L52.4969 17.5637H52.4713L52.4708 17.428H52.4964ZM54.5137 15.4236C54.5137 14.3252 53.6422 13.4468 52.5486 13.4197L52.4964 13.4191H52.0042V17.428H52.4708L52.4713 17.5637H51.8689V13.2832H52.4969C53.6888 13.2832 54.6499 14.2316 54.6499 15.4234L54.6488 15.4787C54.6194 16.6324 53.6702 17.5637 52.4969 17.5637L52.4964 17.428C53.6138 17.428 54.5137 16.5272 54.5137 15.4236Z" fill="var(--fill-0, black)"/>
<path d="M48.8345 12.0016H48.0143L47.7964 12.2323V20.742L48.0143 20.9727H48.8345L49.0652 20.742V12.2323L48.8345 12.0016ZM49.2008 20.7984L48.9302 21.0688L48.8906 21.1086H47.9556L47.6605 20.7961V12.1784L47.9556 11.866H48.8906L48.9302 11.9058L49.161 12.1365L49.2008 12.1762V20.7984Z" fill="var(--fill-0, black)"/>
<path d="M39.154 16.4871C39.154 14.7186 40.5894 13.2832 42.3579 13.2832L42.4272 13.2841C43.8841 13.3147 45.1317 14.3053 45.485 15.7182L45.7028 15.8976H46.5487L46.7665 15.6285C46.3564 13.5267 44.4982 12.0016 42.3579 12.0016C39.8845 12.0016 37.8725 14.0137 37.8725 16.4871L37.8737 16.6029C37.9352 19.0231 39.9232 20.9726 42.3579 20.9727C44.4982 20.9727 46.3564 19.4476 46.7665 17.3458L46.5487 17.0767H45.7028L45.485 17.2561C45.1261 18.6915 43.8446 19.6911 42.3579 19.6911L42.3576 19.5555C43.7822 19.5555 45.0094 18.598 45.3531 17.2234L45.3638 17.1799L45.3984 17.1515L45.6539 16.9411H46.6132L46.654 16.9914L46.8718 17.2606L46.9117 17.3098L46.8995 17.3719C46.4769 19.5377 44.5626 21.1086 42.3576 21.1086C39.8093 21.1085 37.7365 19.0357 37.7365 16.4873C37.7365 13.9389 39.8093 11.866 42.3576 11.866C44.5626 11.866 46.4769 13.4369 46.8995 15.6026L46.9117 15.6648L46.6132 16.0335H45.6539L45.6164 16.0025L45.3638 15.7947L45.3531 15.7513C45.0094 14.3766 43.7822 13.4191 42.3576 13.4191C40.6641 13.4192 39.2895 14.7937 39.2895 16.4873L39.2905 16.5664C39.3325 18.2235 40.6905 19.5555 42.3576 19.5555L42.3579 19.6911L42.2751 19.6902C40.5721 19.647 39.1981 18.2729 39.1549 16.57L39.154 16.4871Z" fill="var(--fill-0, black)"/>
<path d="M64.456 1.86216L64.7511 1.54973H66.4884L66.489 1.68535H64.8101L64.5923 1.91603V10.4257L64.8101 10.6564H65.6431L65.861 10.4257V8.51617H66.4762L68.3985 10.4513H68.7189L69.3084 9.86182V9.54143L67.95 8.19577C69.1232 7.64069 69.8861 6.46485 69.9097 5.16915L69.9108 5.10717C69.9108 3.25267 68.42 1.73366 66.5765 1.68666L66.489 1.68535L66.4884 1.54973C68.4473 1.54973 70.0459 3.1485 70.0459 5.10738L70.0454 5.17154C70.0221 6.45504 69.3009 7.62491 68.1787 8.23185L69.4035 9.44513L69.4436 9.48503V9.91822L68.7746 10.5872H68.3414L66.4191 8.65205H65.9963V10.4799L65.7011 10.7923H64.7511L64.456 10.4799V1.86216ZM66.4884 7.11176L66.489 7.2474H66.4633L66.4629 7.11176H66.4884ZM68.5058 5.10738C68.5058 4.00897 67.6343 3.13058 66.5407 3.10341L66.4884 3.10288H65.9963V7.11176H66.4629L66.4633 7.2474H65.861V2.96693H66.489C67.6808 2.96693 68.642 3.9153 68.642 5.10717L68.6407 5.16239C68.6114 6.31615 67.6622 7.2474 66.489 7.2474L66.4884 7.11176C67.6058 7.11175 68.5058 6.21091 68.5058 5.10738Z" fill="var(--fill-0, black)"/>
<path d="M63.564 6.17088C63.564 3.73609 61.6138 1.74845 59.1936 1.68692L59.0785 1.68535C56.6051 1.68535 54.593 3.69743 54.593 6.17088C54.593 8.60569 56.5422 10.5936 58.9624 10.6551L59.0785 10.6564C60.8855 10.6564 62.5003 9.57988 63.2051 7.92664L63.0001 7.60625H62.0902L61.8851 7.72159C61.3212 8.74685 60.2447 9.37482 59.0785 9.37482L59.078 9.23927C60.1953 9.23926 61.2259 8.63766 61.7657 7.65629L61.7843 7.62236L62.0231 7.48808L62.0541 7.47072H63.0738L63.3189 7.85367L63.3576 7.91398L63.3295 7.97999C62.6035 9.68295 60.9397 10.7923 59.078 10.7923C56.5296 10.7923 54.4567 8.71942 54.4567 6.17101C54.4567 3.62261 56.5296 1.54973 59.078 1.54973C61.6264 1.54974 63.6992 3.62261 63.6992 6.17101L63.699 6.27719C63.6984 6.38456 63.6959 6.49509 63.6858 6.60619L63.6809 6.65974L63.3715 6.93479H56.1069C56.4381 8.27353 57.6607 9.23927 59.078 9.23927L59.0785 9.37482L59.006 9.37421C57.4991 9.34085 56.2162 8.26221 55.9386 6.79885H63.3205L63.5512 6.5938C63.5608 6.48808 63.5626 6.38251 63.5632 6.27679L63.564 6.17088ZM59.1498 2.96781C60.6564 3.00073 61.9282 4.06649 62.2183 5.51727H55.9386C56.2462 4.04346 57.5534 2.96693 59.0785 2.96693L59.1498 2.96781ZM59.078 3.10288C57.6746 3.10288 56.4639 4.05499 56.1101 5.38164H62.0473C61.7051 4.05578 60.4945 3.10289 59.078 3.10288Z" fill="var(--fill-0, black)"/>
<path d="M53.3503 1.69817H52.5173L52.2994 1.91603V9.38764H51.6715L50.2489 1.86477L50.0182 1.68535H48.3778L48.1471 1.91603V10.4257L48.365 10.6564H49.198L49.4159 10.4257V4.35103L50.5821 10.4642L50.8128 10.6308V10.6564H53.3375L53.5682 10.4257V1.91603L53.3503 1.69817ZM53.7033 10.4821L53.6637 10.5219L53.3931 10.7923H50.6765V10.7003L50.4584 10.5428L49.551 5.78686V10.4799L49.514 10.5191L49.256 10.7923H48.3059L48.0479 10.5191L48.0109 10.4799V1.85991L48.0506 1.82027L48.321 1.54973H50.0643L50.101 1.57836L50.3316 1.75784L50.3722 1.78925L51.7834 9.252H52.1631V1.85991L52.2029 1.82027L52.4605 1.56258H53.406L53.7033 1.85991V10.4821Z" fill="var(--fill-0, black)"/>
<path d="M46.3918 1.69817H45.5587L45.3409 1.91603V9.38764H44.7129L43.2904 1.86477L43.0597 1.68535H41.4193L41.1886 1.91603V10.4257L41.4064 10.6564H42.2395L42.4573 10.4257V4.35103L43.6236 10.4642L43.8542 10.6308V10.6564H46.3789L46.6096 10.4257V1.91603L46.3918 1.69817ZM46.7449 10.4821L46.4347 10.7923H43.718V10.7003L43.4998 10.5428L42.5926 5.78713V10.4799L42.2975 10.7923H41.3474L41.0523 10.4799V1.85991L41.0921 1.82027L41.3625 1.54973H43.1057L43.4136 1.78925L44.8248 9.252H45.2046V1.85991L45.2444 1.82027L45.502 1.56258H46.4474L46.7051 1.82027L46.7449 1.85991V10.4821Z" fill="var(--fill-0, black)"/>
<path d="M39.4232 1.68535H38.603L38.3851 1.91603V10.4257L38.603 10.6564H39.4232L39.6539 10.4257V1.91603L39.4232 1.68535ZM39.7892 10.4821L39.4789 10.7923H38.5439L38.2859 10.5191L38.2489 10.4799V1.86216L38.2859 1.82292L38.5439 1.54973H39.4789L39.7494 1.82027L39.7892 1.85991V10.4821Z" fill="var(--fill-0, black)"/>
</g>
</g>
</svg>
